<?xml version="1.0" ?><svg data-name="Layer 1" id="Layer_1" viewBox="0 0 64 64" xmlns="http://www.w3.org/2000/svg"><defs><style>.cls-1{fill:none;stroke:#078cd6;stroke-linecap:round;stroke-linejoin:round;stroke-width:2px;}.cls-2{fill:#078cd6;}</style></defs><title/><path class="cls-1" d="M16,46H11a4,4,0,0,1-4-4V24a4,4,0,0,1,4-4H53a4,4,0,0,1,4,4V42a4,4,0,0,1-4,4H48"/><line class="cls-1" x1="15" x2="49" y1="41" y2="41"/><path class="cls-1" d="M20,41H44a0,0,0,0,1,0,0V53a2,2,0,0,1-2,2H22a2,2,0,0,1-2-2V41A0,0,0,0,1,20,41Z"/><circle class="cls-2" cx="45.5" cy="29.5" r="2"/><path class="cls-1" d="M39,10v4a2,2,0,0,0,2,2h4.06l-5.29-6H21a2,2,0,0,0-2,2v7"/><line class="cls-1" x1="26" x2="38" y1="45" y2="45"/></svg>